<svg xmlns="http://www.w3.org/2000/svg" viewBox="0 0 417.82 461.19"><defs><style>.cls-1{fill:#fff;}</style></defs><g id="Capa_2" data-name="Capa 2"><g id="Capa_1-2" data-name="Capa 1"><path class="cls-1" d="M272.18,171.39a27.62,27.62,0,1,1-27.62-27.6,27.62,27.62,0,0,1,27.62,27.6"></path><path class="cls-1" d="M231.23,446.17v-2a17.57,17.57,0,0,0-7.25-1.5c-4.86,0-7.85,2-7.85,5.53v.15c0,3.07,2.54,4.86,6.2,4.86,5.31,0,8.9-2.91,8.9-7m-26.09,2.61v-.15c0-8.74,6.65-12.78,16.15-12.78a28.28,28.28,0,0,1,9.79,1.65v-.68c0-4.71-2.92-7.32-8.6-7.32a25.73,25.73,0,0,0-7.84,1.12,5,5,0,0,1-1.65.3,4.63,4.63,0,0,1-4.71-4.64,4.71,4.71,0,0,1,3.07-4.41,35,35,0,0,1,12.78-2.09c6.2,0,10.69,1.64,13.53,4.48,3,3,4.33,7.4,4.33,12.79v18.24a5.45,5.45,0,0,1-5.53,5.45c-3.29,0-5.46-2.32-5.46-4.71V456c-2.76,3.06-6.57,5.08-12.11,5.08-7.54,0-13.75-4.33-13.75-12.26"></path><path class="cls-1" d="M251.79,425.46a5.68,5.68,0,1,1,11.36,0v.45c2.61-3.36,6.05-6.43,11.81-6.43,5.23,0,9.19,2.32,11.29,6.35,3.51-4.11,7.7-6.35,13.15-6.35,8.45,0,13.53,5.08,13.53,14.73v20.85a5.68,5.68,0,0,1-11.36,0V437.94c0-5.38-2.39-8.14-6.65-8.14s-6.88,2.76-6.88,8.14v17.12a5.68,5.68,0,0,1-11.36,0V437.94c0-5.38-2.39-8.14-6.65-8.14s-6.88,2.76-6.88,8.14v17.12a5.68,5.68,0,1,1-11.36,0Z"></path><path class="cls-1" d="M353,440.49v-.15c0-5.91-4.26-11.07-10.54-11.07-6.5,0-10.39,5-10.39,10.92v.15c0,5.9,4.26,11.06,10.54,11.06,6.51,0,10.39-5,10.39-10.91m-32.14,0v-.15c0-11.52,9.27-20.86,21.75-20.86s21.6,9.2,21.6,20.71v.15c0,11.51-9.26,20.85-21.75,20.85s-21.6-9.19-21.6-20.7"></path><path class="cls-1" d="M371.39,456.48a4.54,4.54,0,0,1-2.16-3.89,4.4,4.4,0,0,1,4.48-4.48,4.28,4.28,0,0,1,2.24.6,21.14,21.14,0,0,0,10.84,3.58c3.29,0,4.79-1.19,4.79-3v-.15c0-2.47-3.89-3.29-8.3-4.64-5.61-1.64-12-4.26-12-12v-.15c0-8.15,6.58-12.71,14.65-12.71a28.25,28.25,0,0,1,12.41,3.06,4.65,4.65,0,0,1,2.69,4.27,4.47,4.47,0,0,1-4.56,4.48,4.16,4.16,0,0,1-2.09-.52,21.38,21.38,0,0,0-8.67-2.54c-2.77,0-4.19,1.19-4.19,2.76v.15c0,2.24,3.81,3.29,8.15,4.78,5.6,1.87,12.11,4.56,12.11,11.89v.15c0,8.89-6.66,12.93-15.33,12.93a27.93,27.93,0,0,1-15.1-4.56"></path><path class="cls-1" d="M0,369.19a1.66,1.66,0,0,1,1.66-1.7,1.73,1.73,0,0,1,1.7,1.7v5.32H9.2A1.54,1.54,0,0,1,10.73,376a1.51,1.51,0,0,1-1.53,1.48H3.36v13.17c0,2.75,1.52,3.75,3.79,3.75a9.61,9.61,0,0,0,2-.3,1.45,1.45,0,0,1,1.44,1.44,1.4,1.4,0,0,1-1,1.31,8.54,8.54,0,0,1-3.31.61c-3.62,0-6.37-1.79-6.37-6.37"></path><path class="cls-1" d="M189.45,171.39a27.6,27.6,0,1,1-27.6-27.6,27.58,27.58,0,0,1,27.6,27.6"></path><path class="cls-1" d="M396.11,224.85l-32.42-42.5c-3.14-4.14-8.31-4.16-11.5,0l-32.87,42.61c-3.18,4.12-1.52,7.5,3.68,7.49h14.48c-21,55.71-76.29,93.52-137.49,90.68-69.47-3.18-126.63-57.69-133-126.8a18.79,18.79,0,1,0-37.43,3.45A177.63,177.63,0,0,0,317.27,322c28.88-23.08,49.71-53.11,59.82-88.25l-.31,1.34h.28l15.34-1.36c5.21,0,6.88-4.74,3.71-8.88"></path><path class="cls-1" d="M380.63,143.51C365.06,64,296.73,5.34,214.54.33,135.2-4.51,57.4,44.79,28.2,112.78h-15c-5.29,0-7,3.36-3.75,7.48l33.39,42.61c3.24,4.14,8.5,4.12,11.7,0l33-42.5c3.2-4.15,1.52-7.54-3.78-7.54H70.81c26.48-48.33,82.8-78.51,141.35-74.95,64.82,3.95,118.68,50.31,131,113a19.11,19.11,0,0,0,37.52-7.3"></path><path class="cls-1" d="M1,425.46a5.68,5.68,0,0,1,11.36,0v1.8c1.65-3.89,4.34-7.48,7.7-7.48a5.49,5.49,0,0,1,1.27,10.84c-5.75,1.34-9,5.75-9,13.83v10.61a5.68,5.68,0,0,1-11.36,0Z"></path><path class="cls-1" d="M57.5,437.12c-.67-5.08-3.66-8.52-8.44-8.52s-7.78,3.36-8.68,8.52Zm-7.32,24.07c-12,0-20.93-8.45-20.93-20.7v-.15c0-11.44,8.14-20.86,19.81-20.86,13.38,0,19.28,11,19.28,19.29A5.18,5.18,0,0,1,63,444.22H40.53c1.13,5.16,4.71,7.85,9.8,7.85a13.1,13.1,0,0,0,8.07-2.69,4.22,4.22,0,0,1,2.76-.9A4.34,4.34,0,0,1,65.57,453a4.47,4.47,0,0,1-1.49,3.36,20.75,20.75,0,0,1-13.9,4.86"></path><path class="cls-1" d="M75.07,440.49v-.15a20.58,20.58,0,0,1,21-20.86c6,0,10.31,1.65,13.67,4.49a5,5,0,0,1,1.8,3.88,5.11,5.11,0,0,1-5.16,5.09,5.31,5.31,0,0,1-3.29-1.13,10.82,10.82,0,0,0-7.1-2.54c-5.68,0-9.72,5-9.72,10.92v.15c0,6.13,4,11.06,10.17,11.06a11.48,11.48,0,0,0,7.47-2.77,5.29,5.29,0,0,1,3.07-1,4.82,4.82,0,0,1,3.14,8.44c-3.37,3.07-7.63,5.16-14.2,5.16a20.46,20.46,0,0,1-20.86-20.7"></path><path class="cls-1" d="M120.22,425.46a5.68,5.68,0,0,1,11.36,0v29.6a5.68,5.68,0,0,1-11.36,0Zm-.67-14.8c0-3.29,2.76-5.31,6.35-5.31s6.36,2,6.36,5.31v.15c0,3.29-2.77,5.38-6.36,5.38s-6.35-2.09-6.35-5.38Z"></path><path class="cls-1" d="M140.33,440.49v-.15a20.58,20.58,0,0,1,21-20.86c6,0,10.31,1.65,13.67,4.49a5,5,0,0,1,1.8,3.88,5.11,5.11,0,0,1-5.16,5.09,5.31,5.31,0,0,1-3.29-1.13,10.82,10.82,0,0,0-7.1-2.54c-5.68,0-9.72,5-9.72,10.92v.15c0,6.13,4,11.06,10.17,11.06a11.48,11.48,0,0,0,7.47-2.77,5.29,5.29,0,0,1,3.07-1,4.82,4.82,0,0,1,3.14,8.44c-3.37,3.07-7.63,5.16-14.2,5.16a20.46,20.46,0,0,1-20.86-20.7"></path><path class="cls-1" d="M185.48,411a5.68,5.68,0,0,1,11.36,0v44.1a5.68,5.68,0,0,1-11.36,0Z"></path><path class="cls-1" d="M34.49,385.89v-.09A8.53,8.53,0,0,0,26.12,377c-4.88,0-8.24,4-8.24,8.73v.08a8.46,8.46,0,0,0,8.33,8.77c4.88,0,8.28-3.93,8.28-8.68m-20.06,0v-.09a11.76,11.76,0,0,1,23.51-.08v.08a11.71,11.71,0,0,1-11.82,11.78,11.55,11.55,0,0,1-11.69-11.69"></path><path class="cls-1" d="M46.14,385.72v.08c0,5.32,3.7,8.73,7.93,8.73a8.43,8.43,0,0,0,8.16-8.73v-.08A8.38,8.38,0,0,0,54.07,377c-4.36,0-7.93,3.22-7.93,8.68m19.31,9.85a1.68,1.68,0,1,1-3.35,0v-3.05c-1.83,2.7-4.49,5-8.64,5-5.41,0-10.77-4.27-10.77-11.68v-.09c0-7.37,5.36-11.73,10.77-11.73a10.18,10.18,0,0,1,8.64,4.8V366.7a1.63,1.63,0,0,1,1.65-1.7,1.67,1.67,0,0,1,1.7,1.7Z"></path><path class="cls-1" d="M91.62,385.89v-.09A8.53,8.53,0,0,0,83.24,377c-4.88,0-8.24,4-8.24,8.73v.08a8.47,8.47,0,0,0,8.33,8.77c4.89,0,8.29-3.93,8.29-8.68m-20.06,0v-.09a11.75,11.75,0,0,1,23.5-.08v.08a11.71,11.71,0,0,1-11.82,11.78,11.54,11.54,0,0,1-11.68-11.69"></path><path class="cls-1" d="M99.9,394.65a1.51,1.51,0,0,1-.61-1.22,1.47,1.47,0,0,1,1.48-1.44,1.31,1.31,0,0,1,.83.27,12.65,12.65,0,0,0,7.15,2.39c2.71,0,4.67-1.39,4.67-3.57V391c0-2.27-2.66-3.14-5.63-4-3.53-1-7.45-2.22-7.45-6.36v-.09c0-3.88,3.22-6.45,7.67-6.45a15.8,15.8,0,0,1,7.2,1.91,1.66,1.66,0,0,1,.83,1.4,1.47,1.47,0,0,1-1.49,1.44,1.68,1.68,0,0,1-.74-.18,12.2,12.2,0,0,0-5.88-1.74c-2.66,0-4.37,1.39-4.37,3.27v.09c0,2.13,2.8,3,5.8,3.88,3.49,1.05,7.24,2.4,7.24,6.45v.09c0,4.27-3.53,6.76-8,6.76a15.55,15.55,0,0,1-8.68-2.84"></path><path class="cls-1" d="M408.38,397.7a7.06,7.06,0,1,0,7.06,7.06,7.07,7.07,0,0,0-7.06-7.06m0,16.5a9.44,9.44,0,1,1,9.44-9.44,9.45,9.45,0,0,1-9.44,9.44"></path><path class="cls-1" d="M406.36,404.25h2.11a3,3,0,0,0,1-.14,1.17,1.17,0,0,0,.58-.44,1.21,1.21,0,0,0,.19-.67,1.12,1.12,0,0,0-.38-.86,1.81,1.81,0,0,0-1.2-.34h-2.35Zm-1,4.14V401h3.29a4.39,4.39,0,0,1,1.5.2,1.66,1.66,0,0,1,.82.71,2,2,0,0,1,.31,1.11,1.86,1.86,0,0,1-.51,1.33,2.58,2.58,0,0,1-1.57.69,2.9,2.9,0,0,1,.59.37,5.49,5.49,0,0,1,.81,1l1.29,2h-1.23l-1-1.54c-.29-.44-.53-.79-.71-1a2.33,2.33,0,0,0-.5-.5,1.35,1.35,0,0,0-.45-.19,2.35,2.35,0,0,0-.54,0h-1.14v3.29Z"></path></g></g></svg>